<svg width="139" height="40" viewBox="0 0 139 40" fill="none" xmlns="http://www.w3.org/2000/svg">
<g id="Group 51">
<g id="Union">
<path fill-rule="evenodd" clip-rule="evenodd" d="M26.0501 6.40647L22.7108 1.37247L14.8502 10.2688L17.9857 11.3837H20.4941L21.444 11.3837L26.0501 6.40647ZM60.2267 26.1755L57.4656 21.4217L59.043 15.9726L67.3517 10.5267L64.3066 5.64828L50.9216 21.3781L55.4215 21.9761L52.627 27.0829L56.5693 30.5607L60.2267 30.5607V26.1755ZM103.826 4.19486L106.776 8.64506L101.803 26.9968L75.4595 34.3257L72.4409 29.7855L103.826 4.19486ZM134.671 1.76463L137.622 6.21483L132.408 24.2217L126.211 30.2336L123.193 25.6934L134.671 1.76463ZM42.3964 13.4719L39.4459 9.02175L33.1081 14.6197L28.582 12.6031L14.7285 12.6031L19.9866 22.2824L23.493 27.4277L27.1604 25.6216L27.5596 25.8877L36.6884 27.257L39.9797 19.3084L41.7141 18.4542L40.5484 17.9349L42.3964 13.4719Z" fill="black"/>
<path d="M22.7108 1.37247L23.2606 1.00776L22.7855 0.291519L22.2164 0.93561L22.7108 1.37247ZM26.0501 6.40647L26.5343 6.85459L26.8866 6.47395L26.5999 6.04176L26.0501 6.40647ZM14.8502 10.2688L14.3557 9.83196L13.7094 10.5635L14.6291 10.8905L14.8502 10.2688ZM17.9857 11.3837L17.7647 12.0053L17.8719 12.0434H17.9857V11.3837ZM20.4941 11.3837L20.4941 10.7239H20.4941V11.3837ZM21.444 11.3837L21.444 12.0435L21.7324 12.0435L21.9282 11.8318L21.444 11.3837ZM57.4656 21.4217L56.8319 21.2383L56.7535 21.5092L56.8951 21.7531L57.4656 21.4217ZM60.2267 26.1755H60.8865V25.9978L60.7973 25.8442L60.2267 26.1755ZM59.043 15.9726L58.6813 15.4208L58.4772 15.5546L58.4093 15.7891L59.043 15.9726ZM67.3517 10.5267L67.7134 11.0785L68.2531 10.7248L67.9114 10.1774L67.3517 10.5267ZM64.3066 5.64828L64.8663 5.29892L64.3886 4.53377L63.8041 5.22071L64.3066 5.64828ZM50.9216 21.3781L50.4191 20.9505L49.6345 21.8726L50.8347 22.0321L50.9216 21.3781ZM55.4215 21.9761L56.0003 22.2928L56.4621 21.4488L55.5084 21.3221L55.4215 21.9761ZM52.627 27.0829L52.0482 26.7662L51.7951 27.2288L52.1906 27.5777L52.627 27.0829ZM56.5693 30.5607L56.1329 31.0555L56.3199 31.2205H56.5693V30.5607ZM60.2267 30.5607V31.2205L60.8865 31.2205V30.5607H60.2267ZM106.776 8.64506L107.413 8.81763L107.491 8.52938L107.326 8.28048L106.776 8.64506ZM103.826 4.19486L104.375 3.83028L103.973 3.22333L103.409 3.68353L103.826 4.19486ZM101.803 26.9968L101.98 27.6325L102.342 27.5318L102.44 27.1694L101.803 26.9968ZM75.4595 34.3257L74.9101 34.691L75.1751 35.0897L75.6363 34.9614L75.4595 34.3257ZM72.4409 29.7855L72.0239 29.2741L71.5601 29.6524L71.8915 30.1508L72.4409 29.7855ZM137.622 6.21483L138.256 6.39832L138.341 6.10487L138.172 5.85025L137.622 6.21483ZM134.671 1.76463L135.221 1.40005L134.579 0.431526L134.076 1.47928L134.671 1.76463ZM132.408 24.2217L132.868 24.6953L132.993 24.5734L133.042 24.4052L132.408 24.2217ZM126.211 30.2336L125.662 30.5989L126.101 31.2597L126.671 30.7072L126.211 30.2336ZM123.193 25.6934L122.598 25.408L122.436 25.7463L122.643 26.0587L123.193 25.6934ZM39.4459 9.02175L39.9957 8.65716L39.577 8.02562L39.0091 8.52725L39.4459 9.02175ZM42.3964 13.4719L43.006 13.7244L43.1403 13.4L42.9463 13.1074L42.3964 13.4719ZM33.1081 14.6197L32.8395 15.2224L33.2269 15.395L33.5448 15.1142L33.1081 14.6197ZM28.582 12.6031L28.8505 12.0005L28.7223 11.9433H28.582L28.582 12.6031ZM14.7285 12.6031L14.7285 11.9433H13.6193L14.1488 12.918L14.7285 12.6031ZM19.9866 22.2824L19.4069 22.5974L19.4227 22.6265L19.4414 22.654L19.9866 22.2824ZM23.493 27.4277L22.9478 27.7992L23.2705 28.2727L23.7845 28.0196L23.493 27.4277ZM27.1604 25.6216L27.5263 25.0726L27.21 24.8617L26.8689 25.0297L27.1604 25.6216ZM27.5596 25.8877L27.1936 26.4367L27.3161 26.5184L27.4617 26.5402L27.5596 25.8877ZM36.6884 27.257L36.5905 27.9095L37.1006 27.986L37.298 27.5095L36.6884 27.257ZM39.9797 19.3084L39.6882 18.7165L39.4652 18.8263L39.3701 19.056L39.9797 19.3084ZM41.7141 18.4542L42.0056 19.0461L43.2682 18.4244L41.9827 17.8516L41.7141 18.4542ZM40.5484 17.9349L39.9389 17.6824L39.6931 18.276L40.2799 18.5375L40.5484 17.9349ZM22.161 1.73717L25.5003 6.77118L26.5999 6.04176L23.2606 1.00776L22.161 1.73717ZM15.3446 10.7057L23.2052 1.80932L22.2164 0.93561L14.3557 9.83196L15.3446 10.7057ZM18.2067 10.762L15.0712 9.64718L14.6291 10.8905L17.7647 12.0053L18.2067 10.762ZM20.4941 10.7239H17.9857V12.0434H20.4941V10.7239ZM21.444 10.7239L20.4941 10.7239L20.4941 12.0434L21.444 12.0435L21.444 10.7239ZM25.5658 5.95835L20.9598 10.9356L21.9282 11.8318L26.5343 6.85459L25.5658 5.95835ZM56.8951 21.7531L59.6562 26.5069L60.7973 25.8442L58.0361 21.0903L56.8951 21.7531ZM58.4093 15.7891L56.8319 21.2383L58.0994 21.6052L59.6768 16.156L58.4093 15.7891ZM66.9901 9.97491L58.6813 15.4208L59.4047 16.5244L67.7134 11.0785L66.9901 9.97491ZM63.7469 5.99763L66.792 10.8761L67.9114 10.1774L64.8663 5.29892L63.7469 5.99763ZM51.4241 21.8056L64.8091 6.07585L63.8041 5.22071L50.4191 20.9505L51.4241 21.8056ZM55.5084 21.3221L51.0085 20.724L50.8347 22.0321L55.3346 22.6301L55.5084 21.3221ZM53.2058 27.3996L56.0003 22.2928L54.8427 21.6594L52.0482 26.7662L53.2058 27.3996ZM57.0058 30.066L53.0635 26.5882L52.1906 27.5777L56.1329 31.0555L57.0058 30.066ZM60.2267 29.901L56.5693 29.901L56.5693 31.2205L60.2267 31.2205L60.2267 29.901ZM59.567 26.1755V30.5607H60.8865V26.1755H59.567ZM107.326 8.28048L104.375 3.83028L103.276 4.55945L106.226 9.00964L107.326 8.28048ZM102.44 27.1694L107.413 8.81763L106.139 8.47249L101.166 26.8243L102.44 27.1694ZM75.6363 34.9614L101.98 27.6325L101.626 26.3612L75.2827 33.6901L75.6363 34.9614ZM71.8915 30.1508L74.9101 34.691L76.0089 33.9604L72.9903 29.4202L71.8915 30.1508ZM103.409 3.68353L72.0239 29.2741L72.8578 30.2968L104.243 4.7062L103.409 3.68353ZM138.172 5.85025L135.221 1.40005L134.121 2.12922L137.072 6.57941L138.172 5.85025ZM133.042 24.4052L138.256 6.39832L136.988 6.03134L131.774 24.0382L133.042 24.4052ZM126.671 30.7072L132.868 24.6953L131.949 23.7482L125.752 29.7601L126.671 30.7072ZM122.643 26.0587L125.662 30.5989L126.761 29.8684L123.742 25.3281L122.643 26.0587ZM134.076 1.47928L122.598 25.408L123.788 25.9787L135.266 2.04999L134.076 1.47928ZM38.896 9.38633L41.8465 13.8365L42.9463 13.1074L39.9957 8.65716L38.896 9.38633ZM33.5448 15.1142L39.8826 9.51624L39.0091 8.52725L32.6713 14.1252L33.5448 15.1142ZM33.3766 14.0171L28.8505 12.0005L28.3135 13.2058L32.8395 15.2224L33.3766 14.0171ZM28.582 11.9433L14.7285 11.9433L14.7285 13.2629L28.582 13.2629L28.582 11.9433ZM14.1488 12.918L19.4069 22.5974L20.5664 21.9675L15.3083 12.2882L14.1488 12.918ZM19.4414 22.654L22.9478 27.7992L24.0382 27.0561L20.5318 21.9109L19.4414 22.654ZM23.7845 28.0196L27.4519 26.2135L26.8689 25.0297L23.2015 26.8358L23.7845 28.0196ZM27.9255 25.3388L27.5263 25.0726L26.7944 26.1706L27.1936 26.4367L27.9255 25.3388ZM36.7862 26.6046L27.6574 25.2353L27.4617 26.5402L36.5905 27.9095L36.7862 26.6046ZM39.3701 19.056L36.0788 27.0046L37.298 27.5095L40.5893 19.5608L39.3701 19.056ZM40.2712 19.9003L42.0056 19.0461L41.4227 17.8624L39.6882 18.7165L40.2712 19.9003ZM41.9827 17.8516L40.817 17.3322L40.2799 18.5375L41.4456 19.0569L41.9827 17.8516ZM41.7868 13.2195L39.9389 17.6824L41.158 18.1873L43.006 13.7244L41.7868 13.2195ZM60.8865 26.1755V25.5562H59.567V26.1755H60.8865Z" fill="black"/>
</g>
<g id="Group 48">
<path id="Rectangle 4" d="M76.0534 34.4283L82.385 9.16285H106.675L100.344 34.4283H76.0534Z" fill="black" stroke="black" stroke-width="1.31954"/>
<path id="E" d="M4.77891 29.9253L4.6775 30.5772H5.33726H11.006H11.6658L11.7672 29.9253L13.0677 21.5649H22.2569H22.9167L23.0181 20.913L23.7336 16.313L23.8351 15.6611H23.1753H13.986L14.3819 13.116H24.5213H25.181L25.2824 12.464L26.0175 7.73886L26.1189 7.08693H25.4591H15.3198H14.66H13.4883H12.8285H8.9913H8.33154L8.23012 7.73886L4.77891 29.9253Z" fill="black" stroke="black" stroke-width="1.31954"/>
<path id="c" d="M100.935 29.8907L100.938 29.8927C102.256 30.6346 103.795 30.9998 105.538 30.9998C106.877 30.9998 108.13 30.7792 109.287 30.3229C110.455 29.8708 111.567 29.1967 112.624 28.3111L113.176 27.8481L112.772 27.3814L109.792 23.9392L109.371 23.4529L108.828 23.9709C108.527 24.2585 108.199 24.4729 107.843 24.6214C107.504 24.7623 107.081 24.8456 106.558 24.8456C106.076 24.8456 105.669 24.7368 105.323 24.5262C104.991 24.3115 104.735 24.0254 104.554 23.66C104.405 23.2937 104.36 22.8589 104.441 22.3369C104.527 21.787 104.709 21.3569 104.961 21.0192C105.255 20.654 105.594 20.3805 105.984 20.1868L105.984 20.1869L105.993 20.182C106.407 19.9695 106.849 19.8596 107.334 19.8596C107.817 19.8596 108.19 19.9333 108.472 20.0589L108.49 20.0667L108.508 20.0734C108.819 20.187 109.076 20.3637 109.285 20.6075L109.679 21.0684L110.218 20.6075L114.237 17.1653L114.782 16.6983L114.375 16.2374C113.627 15.39 112.747 14.7466 111.737 14.3162C110.724 13.8848 109.574 13.6741 108.296 13.6741C106.531 13.6741 104.865 14.0502 103.31 14.8154C101.788 15.5554 100.499 16.5808 99.4523 17.887L99.4523 17.887L99.4469 17.8938C98.4109 19.2157 97.769 20.7136 97.5116 22.3682C97.2572 24.0039 97.4357 25.4909 98.0597 26.8114C98.6791 28.122 99.6415 29.1498 100.935 29.8907Z" fill="black" stroke="black" stroke-width="1.31954"/>
<path id="x" d="M91.8963 30.3352L92.0365 30.66H92.4165H98.7502H99.9901L99.4555 29.6439L95.4929 22.1116L101.405 15.0712L102.259 14.0541H101.017H95.1263H94.7506L94.5092 14.3734L92.3983 17.1659L91.1802 14.3768L91.0393 14.0541H90.661H84.2955H83.0495L83.5914 15.0725L87.392 22.2138L81.0134 29.6358L80.1332 30.66H81.3957H87.2861H87.6514L87.8928 30.3541L90.4867 27.0686L91.8963 30.3352Z" fill="black" stroke="black" stroke-width="1.31954"/>
<path id="e" d="M70.671 29.5842L70.671 29.5842L70.6778 29.588C72.0021 30.3089 73.5834 30.66 75.4018 30.66C76.8443 30.66 78.1915 30.4298 79.4342 29.9546C80.6978 29.4795 81.8218 28.7744 82.7965 27.8409L83.2759 27.3818L82.9059 26.9498L80.7085 24.3842L83.7621 24.3702L84.2751 24.3678L84.4759 23.8764C84.6533 23.4421 84.7867 23.0435 84.8681 22.6856C84.9667 22.3333 85.0425 21.989 85.0948 21.653C85.3412 20.0691 85.1905 18.6385 84.6239 17.3807C84.0847 16.1085 83.2002 15.1179 81.9826 14.4159C80.7826 13.6889 79.3429 13.3344 77.6852 13.3344C75.979 13.3344 74.3623 13.7124 72.8487 14.4799C71.3674 15.2225 70.1199 16.2511 69.1173 17.5589C68.1063 18.8608 67.4789 20.3471 67.2223 21.9972C66.9619 23.6709 67.1353 25.1796 67.7607 26.5029C68.3813 27.8161 69.3562 28.8441 70.671 29.5842ZM74.5754 25.0624C74.316 24.9002 74.1055 24.6869 73.9451 24.4152L79.2107 24.391C78.8222 24.7138 78.4184 24.9549 77.9985 25.1218L77.9985 25.1217L77.9899 25.1253C77.4885 25.3314 76.9005 25.4446 76.2131 25.4446C75.4962 25.4446 74.963 25.3049 74.5754 25.0624ZM78.7385 19.6242H74.6447C74.8802 19.3409 75.1446 19.1158 75.4372 18.941C75.8598 18.6885 76.3514 18.5498 76.9372 18.5498C77.5174 18.5498 77.921 18.6747 78.1986 18.8784C78.4308 19.0488 78.6144 19.2904 78.7385 19.6242Z" fill="black" stroke="black" stroke-width="1.31954"/>
<path id="Vector 19" d="M68.0441 28.2931L63.7236 22.2849L69.8752 26.7961L68.0441 28.2931Z" fill="black"/>
<path id="e_2" d="M114.489 29.8289L114.489 29.829L114.496 29.8327C115.82 30.5536 117.401 30.9047 119.22 30.9047C120.662 30.9047 122.01 30.6745 123.252 30.1994C124.516 29.7242 125.64 29.0192 126.615 28.0856L127.094 27.6265L126.724 27.1945L124.527 24.6289L127.58 24.6149L128.093 24.6126L128.294 24.1211C128.471 23.6868 128.605 23.2883 128.686 22.9303C128.785 22.5781 128.861 22.2337 128.913 21.8977C129.159 20.3139 129.009 18.8833 128.442 17.6254C127.903 16.3532 127.018 15.3627 125.801 14.6606C124.601 13.9336 123.161 13.5791 121.503 13.5791C119.797 13.5791 118.18 13.9571 116.667 14.7246C115.186 15.4673 113.938 16.4958 112.935 17.8036C111.924 19.1055 111.297 20.5918 111.04 22.2419C110.78 23.9156 110.953 25.4244 111.579 26.7476L112.193 26.4038L111.579 26.7476C112.199 28.0608 113.174 29.0888 114.489 29.8289ZM118.394 25.3071C118.134 25.1449 117.924 24.9317 117.763 24.6599L123.029 24.6358C122.64 24.9585 122.237 25.1997 121.817 25.3665L121.817 25.3664L121.808 25.37C121.307 25.5761 120.719 25.6893 120.031 25.6893C119.314 25.6893 118.781 25.5496 118.394 25.3071ZM122.532 19.8045L118.489 19.8376C118.718 19.569 118.974 19.3541 119.255 19.1857C119.678 18.9332 120.17 18.7945 120.755 18.7945C121.335 18.7945 121.739 18.9194 122.017 19.1231C122.234 19.2824 122.408 19.5038 122.532 19.8045Z" fill="black" stroke="black" stroke-width="1.31954"/>
<path id="t" d="M58.747 31.2248L61.7644 11.9253H67.4354L64.4179 31.2248H58.747ZM56.7412 22.9885L57.3658 18.3042H70.0766L69.452 22.9885H56.7412Z" fill="black"/>
<path id="s" d="M43.58 30.693L43.5836 30.694C44.5271 30.9594 45.5043 31.0925 46.5138 31.0925C48.5926 31.0925 50.4013 30.6334 51.8847 29.6478L51.8847 29.6478L51.8913 29.6433C53.4021 28.6181 54.3007 27.2138 54.5678 25.4963C54.7282 24.4652 54.6774 23.561 54.3585 22.8271C54.079 22.1371 53.6411 21.5794 53.0454 21.166C52.8137 20.9893 52.5723 20.8293 52.3212 20.6862L52.6337 20.4161L56.1461 17.3808L56.6276 16.9647L56.3242 16.5106C55.6594 15.5156 54.7017 14.784 53.4743 14.3095C52.2699 13.8219 50.9618 13.5791 49.5548 13.5791C48.1745 13.5791 46.9032 13.8097 45.755 14.2927C44.6209 14.7502 43.6617 15.4026 42.9027 16.2588L42.9026 16.2588L42.9002 16.2616C42.1526 17.1127 41.6991 18.1034 41.5275 19.2065C41.3702 20.2177 41.4131 21.1073 41.7071 21.8371L41.7101 21.8445L41.7133 21.8519C42.0167 22.5452 42.4728 23.0971 43.0845 23.4912C43.1508 23.5339 43.2175 23.5756 43.2848 23.6164L42.7645 24.0701L39.2838 27.1055L38.7651 27.5578L39.1386 28.0138C39.6415 28.6279 40.2751 29.1657 41.0318 29.6306L41.0401 29.6358L41.0486 29.6406C41.8255 30.0802 42.6698 30.4307 43.58 30.693ZM50.4268 19.416C50.8766 19.5778 51.2858 19.8798 51.6467 20.3523C51.5347 20.3048 51.421 20.2602 51.3057 20.2186C50.7302 20.0039 50.1562 19.8307 49.5838 19.6999C49.09 19.5622 48.705 19.4201 48.4186 19.2774C48.3722 19.2521 48.3416 19.2299 48.322 19.213L48.329 19.2086C48.3718 19.1819 48.559 19.1074 49.0115 19.1074C49.4187 19.1074 49.8832 19.2 50.409 19.4093L50.4178 19.4128L50.4268 19.416ZM43.3867 23.6772C43.8495 23.9494 44.3353 24.1772 44.8441 24.3603L44.8533 24.3636L44.8626 24.3666C45.4523 24.5565 46.0147 24.7257 46.5495 24.8741L46.563 24.8779L46.5768 24.881C47.094 24.9986 47.4578 25.1374 47.6958 25.2822L47.7149 25.2938L47.735 25.3039C47.8319 25.3525 47.8594 25.3924 47.8658 25.4038C47.8672 25.4062 47.8682 25.4085 47.869 25.4107C47.8668 25.4117 47.8645 25.4128 47.8621 25.4139L47.8507 25.4191L47.8395 25.4247C47.7449 25.4718 47.5197 25.5328 47.0936 25.5328C46.3758 25.5328 45.7226 25.4028 45.1282 25.1452C44.5524 24.8864 44.0823 24.5297 43.7111 24.0748L43.3867 23.6772Z" fill="black" stroke="black" stroke-width="1.31954"/>
<path id="a" d="M23.3365 26.7678L23.3364 26.7678L23.338 26.7719C23.8237 28.06 24.62 29.0864 25.7247 29.838C26.8396 30.5966 28.1818 30.9692 29.7294 30.9692C30.7032 30.9692 31.7376 30.927 32.7447 30.5104C32.8871 30.4516 33.026 30.3869 33.1613 30.3175L33.1086 30.6563H33.7683H39.1837H39.8435L39.9449 30.0043L42.3252 14.7023L42.4266 14.0504H41.7668H36.3515H35.6917L35.6201 14.5104C35.4983 14.4439 35.3721 14.3815 35.2417 14.3233C34.4092 13.9294 33.4615 13.7374 32.4099 13.7374C30.864 13.7374 29.4072 14.1093 28.0575 14.8662C26.7163 15.5993 25.5989 16.6295 24.7099 17.9388C23.8175 19.2531 23.2511 20.735 22.9969 22.369C22.7457 23.9836 22.8534 25.4548 23.3365 26.7678ZM33.6739 24.1382L33.6739 24.1381L33.664 24.1471C33.1887 24.5811 32.6082 24.815 31.8584 24.815C31.3995 24.815 31.0161 24.7073 30.6915 24.4989C30.362 24.2873 30.1324 24.0091 29.992 23.658C29.8535 23.283 29.8157 22.8478 29.895 22.3377C29.9706 21.8516 30.1386 21.4409 30.3863 21.0895C30.6686 20.7027 30.9944 20.4128 31.3654 20.2044C31.749 20.0003 32.1739 19.8916 32.656 19.8916C33.1412 19.8916 33.5177 20.0016 33.8124 20.2008L33.8123 20.2009L33.8229 20.2078C34.154 20.4204 34.3843 20.7003 34.5245 21.0539C34.6629 21.403 34.7041 21.8245 34.6242 22.3377C34.504 23.1108 34.179 23.6918 33.6739 24.1382Z" fill="black" stroke="black" stroke-width="1.31954"/>
<path id="l" d="M126.938 29.9178L126.837 30.5697H127.497H133.007H133.667L133.768 29.9178L137.317 7.10551L137.418 6.45359H136.759H131.248H130.588L130.487 7.10551L126.938 29.9178Z" fill="black" stroke="black" stroke-width="1.31954"/>
</g>
<g id="Group 47">
<path id="Rectangle 4_2" d="M72.4563 29.0607L78.7878 3.7953H103.078L96.7465 29.0607H72.4563Z" fill="#79F427" stroke="black" stroke-width="1.31954"/>
<path id="Rectangle 5" d="M77.3086 8.02875H86.9292L88.778 11.097L91.4152 8.02875H101.25V21.5989H77.3086V8.02875Z" fill="black"/>
<path id="c_2" d="M97.3374 24.5231L97.341 24.5251C98.659 25.2671 100.197 25.6322 101.94 25.6322C103.279 25.6322 104.533 25.4117 105.69 24.9553C106.857 24.5033 107.97 23.8291 109.026 22.9435L109.579 22.4805L109.175 22.0138L106.195 18.5716L105.774 18.0854L105.231 18.6034C104.929 18.8909 104.602 19.1054 104.245 19.2538C103.906 19.3948 103.484 19.478 102.961 19.478C102.479 19.478 102.072 19.3692 101.726 19.1587C101.393 18.944 101.138 18.6578 100.956 18.2924C100.807 17.9262 100.763 17.4913 100.844 16.9694C100.93 16.4194 101.112 15.9893 101.363 15.6516C101.658 15.2864 101.997 15.013 102.386 14.8193L102.386 14.8193L102.396 14.8145C102.809 14.6019 103.252 14.4921 103.736 14.4921C104.22 14.4921 104.592 14.5657 104.875 14.6913L104.892 14.6991L104.91 14.7058C105.221 14.8195 105.478 14.9961 105.687 15.2399L106.082 15.7009L106.62 15.2399L110.639 11.7977L111.184 11.3307L110.777 10.8698C110.029 10.0224 109.15 9.37904 108.14 8.94866C107.127 8.51724 105.976 8.30658 104.699 8.30658C102.934 8.30658 101.267 8.68266 99.7125 9.44785C98.191 10.1878 96.9013 11.2133 95.8549 12.5195L95.8548 12.5194L95.8495 12.5263C94.8135 13.8481 94.1716 15.346 93.9142 17.0007C93.6597 18.6363 93.8383 20.1234 94.4623 21.4438C95.0817 22.7544 96.044 23.7823 97.3374 24.5231Z" fill="white" stroke="black" stroke-width="1.31954"/>
<path id="x_2" d="M88.2986 24.9677L88.4388 25.2925H88.8188H95.1526H96.3924L95.8579 24.2763L91.8953 16.744L97.8074 9.70361L98.6615 8.68656H97.419H91.5286H91.1529L90.9115 9.00587L88.8006 11.7984L87.5826 9.0092L87.4417 8.68656H87.0633H80.6979H79.4518L79.9938 9.70492L83.7944 16.8463L77.4157 24.2683L76.5355 25.2925H77.7981H83.6885H84.0537L84.2952 24.9866L86.889 21.701L88.2986 24.9677Z" fill="white" stroke="black" stroke-width="1.31954"/>
<path id="t_2" d="M53.5428 25.1124L53.4382 25.7812H54.1132H59.7841H60.429L60.5289 25.1422L61.7167 17.545H64.8181H65.4779L65.5651 16.891L66.1896 12.2067L66.2768 11.5527H65.6171H62.6536L63.5463 5.84277L63.6509 5.17391H62.976H57.305H56.6602L56.5602 5.81293L55.6628 11.5527H52.9064H52.2466L52.1594 12.2067L51.5349 16.891L51.4477 17.545H52.1074H54.7259L53.5428 25.1124Z" fill="white" stroke="black" stroke-width="1.31946"/>
<path id="e_3" d="M67.362 24.7026L67.362 24.7026L67.3688 24.7063C68.664 25.4114 70.2101 25.7546 71.9874 25.7546C73.3973 25.7546 74.7147 25.5295 75.9302 25.0647C77.1662 24.6 78.2656 23.9103 79.2191 22.9972L79.6985 22.5381L79.3284 22.1061L77.2058 19.6276L80.1492 19.6142L80.6622 19.6118L80.863 19.1204C81.0364 18.6959 81.1669 18.3061 81.2466 17.9556C81.343 17.6113 81.4172 17.2746 81.4683 16.946C81.7092 15.3973 81.5619 13.998 81.0076 12.7673C80.4801 11.523 79.6148 10.5539 78.4239 9.86725C77.2501 9.15614 75.842 8.80951 74.2214 8.80951C72.5534 8.80951 70.9723 9.17914 69.4919 9.92978C68.0432 10.6561 66.823 11.6621 65.8425 12.9411C64.8534 14.2148 64.2399 15.6686 63.9889 17.282C63.7344 18.9186 63.9038 20.3944 64.5156 21.6889C65.1226 22.9733 66.0762 23.9788 67.362 24.7026ZM71.193 20.261C70.9494 20.1087 70.7502 19.9099 70.5965 19.6579L75.6666 19.6347C75.2987 19.9352 74.9172 20.1607 74.5209 20.3182L74.5209 20.3181L74.5123 20.3216C74.0253 20.5218 73.4536 20.6321 72.7842 20.6321C72.0865 20.6321 71.5687 20.4961 71.193 20.261ZM75.2237 14.9499H71.2826C71.5061 14.6863 71.7558 14.4758 72.0311 14.3113C72.4404 14.0668 72.9171 13.932 73.4864 13.932C74.0505 13.932 74.4414 14.0534 74.7095 14.2502C74.9287 14.4111 75.1035 14.6378 75.2237 14.9499Z" fill="white" stroke="black" stroke-width="1.31954"/>
<path id="e_4" d="M110.892 24.4614L110.892 24.4614L110.898 24.4651C112.223 25.1861 113.804 25.5372 115.622 25.5372C117.065 25.5372 118.412 25.307 119.655 24.8318C120.919 24.3567 122.042 23.6516 123.017 22.7181L123.497 22.259L123.127 21.827L120.929 19.2613L123.983 19.2474L124.496 19.245L124.697 18.7536C124.874 18.3192 125.007 17.9207 125.089 17.5628C125.187 17.2105 125.263 16.8662 125.316 16.5301C125.562 14.9463 125.411 13.5157 124.845 12.2578C124.305 10.9857 123.421 9.99511 122.203 9.29306C121.003 8.56609 119.564 8.21154 117.906 8.21154C116.2 8.21154 114.583 8.58958 113.069 9.35707C111.588 10.0997 110.341 11.1283 109.338 12.4361C108.327 13.738 107.7 15.2243 107.443 16.8743C107.183 18.5481 107.356 20.0568 107.981 21.3801L108.595 21.0363L107.981 21.3801C108.602 22.6932 109.577 23.7213 110.892 24.4614ZM114.796 19.9396C114.537 19.7773 114.326 19.5641 114.166 19.2923L119.431 19.2682C119.043 19.591 118.639 19.8321 118.219 19.9989L118.219 19.9989L118.211 20.0024C117.709 20.2085 117.121 20.3217 116.434 20.3217C115.717 20.3217 115.184 20.1821 114.796 19.9396ZM118.934 14.437L114.892 14.47C115.121 14.2014 115.376 13.9865 115.658 13.8181C116.08 13.5657 116.572 13.427 117.158 13.427C117.738 13.427 118.142 13.5518 118.419 13.7556C118.636 13.9148 118.811 14.1362 118.934 14.437Z" fill="white" stroke="black" stroke-width="1.31954"/>
<path id="s_2" d="M39.9826 25.3254L39.9862 25.3264C40.9297 25.5918 41.9069 25.7249 42.9164 25.7249C44.9952 25.7249 46.8039 25.2659 48.2873 24.2802L48.2873 24.2803L48.2939 24.2758C49.8047 23.2505 50.7033 21.8462 50.9704 20.1288C51.1308 19.0977 51.08 18.1935 50.7611 17.4596C50.4816 16.7696 50.0437 16.2119 49.448 15.7984C49.2203 15.6248 48.9832 15.4673 48.7369 15.3261L49.057 15.0301L52.0926 12.2233L52.5417 11.8081L52.2501 11.3717C52.1644 11.2435 52.0798 11.1079 51.9928 10.9682C51.5316 10.2285 51.001 9.37749 49.8769 8.94195C48.6726 8.45436 47.3644 8.21154 45.9573 8.21154C44.577 8.21154 43.3058 8.44214 42.1576 8.9251C41.0235 9.38269 40.0642 10.0351 39.3052 10.8913L39.3052 10.8913L39.3028 10.8941C38.5552 11.7451 38.1017 12.7358 37.9301 13.839C37.7728 14.8501 37.8157 15.7397 38.1097 16.4696L38.1127 16.477L38.1159 16.4843C38.4193 17.1776 38.8754 17.7295 39.4871 18.1236C39.5534 18.1663 39.6201 18.208 39.6873 18.2488L39.1671 18.7025L35.6863 21.7379L35.1677 22.1902L35.5412 22.6463C36.0441 23.2603 36.6777 23.7981 37.4344 24.2631L37.4427 24.2682L37.4512 24.273C38.2281 24.7126 39.0723 25.0631 39.9826 25.3254ZM46.8294 14.0485C47.2791 14.2103 47.6884 14.5123 48.0493 14.9848C47.9373 14.9372 47.8236 14.8926 47.7083 14.8511C47.1328 14.6363 46.5588 14.4632 45.9864 14.3323C45.4926 14.1947 45.1076 14.0525 44.8212 13.9098C44.7748 13.8845 44.7442 13.8624 44.7245 13.8455L44.7316 13.8411C44.7744 13.8143 44.9616 13.7399 45.4141 13.7399C45.8213 13.7399 46.2858 13.8325 46.8116 14.0417L46.8204 14.0452L46.8294 14.0485ZM39.7893 18.3097C40.252 18.5818 40.7379 18.8097 41.2467 18.9927L41.2559 18.996L41.2652 18.999C41.8549 19.1889 42.4172 19.3582 42.9521 19.5066L42.9656 19.5103L42.9794 19.5135C43.4965 19.631 43.8604 19.7698 44.0984 19.9147L44.1175 19.9263L44.1376 19.9363C44.2345 19.9849 44.262 20.0249 44.2684 20.0362C44.2697 20.0387 44.2708 20.0409 44.2716 20.0431C44.2694 20.0442 44.2671 20.0452 44.2647 20.0463L44.2533 20.0516L44.2421 20.0571C44.1475 20.1042 43.9223 20.1653 43.4962 20.1653C42.7783 20.1653 42.1252 20.0353 41.5308 19.7776C40.955 19.5189 40.4848 19.1621 40.1136 18.7072L39.7893 18.3097Z" fill="white" stroke="black" stroke-width="1.31954"/>
<path id="a_2" d="M19.7391 21.4002L19.739 21.4002L19.7406 21.4044C20.2263 22.6925 21.0226 23.7189 22.1273 24.4705C23.2422 25.229 24.5844 25.6016 26.132 25.6016C27.1862 25.6016 28.196 25.4087 29.1532 25.0128C29.2997 24.9522 29.4434 24.8881 29.584 24.8204L29.5111 25.2887H30.1709H35.5863H36.2461L36.3475 24.6368L38.7278 9.33474L38.8292 8.68282H38.1694H32.7541H32.0943L32.0227 9.14288C31.9009 9.07635 31.7747 9.01398 31.6443 8.95576C30.8118 8.56186 29.8641 8.36989 28.8125 8.36989C27.2665 8.36989 25.8098 8.74176 24.4601 9.49869C23.1189 10.2318 22.0015 11.2619 21.1124 12.5713C20.22 13.8855 19.6537 15.3674 19.3995 17.0014C19.1483 18.6161 19.256 20.0872 19.7391 21.4002ZM30.0765 18.7707L30.0765 18.7706L30.0666 18.7796C29.5913 19.2135 29.0108 19.4474 28.261 19.4474C27.8021 19.4474 27.4186 19.3398 27.0941 19.1313C26.7646 18.9197 26.535 18.6416 26.3946 18.2904C26.2561 17.9154 26.2183 17.4802 26.2976 16.9701C26.3732 16.484 26.5412 16.0734 26.7889 15.7219C27.0712 15.3351 27.397 15.0453 27.7679 14.8368C28.1516 14.6328 28.5765 14.5241 29.0586 14.5241C29.5438 14.5241 29.9203 14.6341 30.215 14.8333L30.2149 14.8334L30.2255 14.8402C30.5566 15.0529 30.7869 15.3327 30.9271 15.6864C31.0655 16.0355 31.1067 16.4569 31.0268 16.9701C30.9066 17.7432 30.5816 18.3243 30.0765 18.7707Z" fill="white" stroke="black" stroke-width="1.31954"/>
<path id="l_2" d="M123.341 24.5502L123.24 25.2021H123.899H129.41H130.069L130.171 24.5502L133.719 1.73796L133.821 1.08603H133.161H127.651H126.991L126.89 1.73796L123.341 24.5502Z" fill="white" stroke="black" stroke-width="1.31954"/>
<path id="F" d="M0.86303 24.6625L0.775838 25.3164H1.43557H7.30945H7.96918L8.05637 24.6625L9.11847 16.6967H18.7626H19.4224L19.5096 16.0428L20.1644 11.1312L20.2516 10.4772H19.5919H9.94773L10.3892 7.16626H20.5584H21.2181L21.3053 6.51232L21.9602 1.60072L22.0474 0.946782H21.3877H11.2185H10.5587H9.34458H8.68485H4.68485H4.02512L3.93793 1.60072L0.86303 24.6625Z" fill="white" stroke="black" stroke-width="1.31946"/>
</g>
<path id="Vector 18" d="M3.98817 31.1698L0.118164 25.9845L7.20055 25.7821L3.98817 31.1698Z" fill="black"/>
<path id="Vector 11" d="M82.4462 33.8961H92.4155L82.4462 39.0752V33.8961Z" fill="black"/>
</g>
</svg>
